# xmcd
#
# Track frame offsets:
#	150
#	18607
#	40242
#	58983
#	75259
#	91475
#	107640
#	123887
#	137070
#	167817
#	189761
#	204509
#	220386
#	236347
#	260686
#
# Disc length: 3713 seconds
#
# Revision: 5
# Processed by: cddbd v1.5.2PL0 Copyright (c) Steve Scherf et al.
# Submitted via: Jack! The Knife 19 Blackthorn
#
DISCID=cc0e7f0f
DTITLE=Giorgia - Spirito Libero [CD 3)
DYEAR=2008
DGENRE=Pop
TTITLE0=Poche Parole
TTITLE1=Il Mare Sconosciuto
TTITLE2=Vento Di Passione
TTITLE3=Farei Di Tutto
TTITLE4=I Heard It Through The Grapevine
TTITLE5=Lacrime Amare
TTITLE6=We've Got Tonight
TTITLE7=Più
TTITLE8=(You Make Me Feel) Like A Natural Woman
TTITLE9=T.V.U.M.D.B.
TTITLE10=Adesso Lo Sai
TTITLE11=I'm Every Woman
TTITLE12=Alba
TTITLE13=Parlo Con Te (Live)
TTITLE14=Stonata (Live)
EXTD=
EXTT0=
EXTT1=
EXTT2=
EXTT3=
EXTT4=
EXTT5=
EXTT6=
EXTT7=
EXTT8=
EXTT9=
EXTT10=
EXTT11=
EXTT12=
EXTT13=
EXTT14=
PLAYORDER=
